<svg xmlns="http://www.w3.org/2000/svg" width="860" height="236" viewBox="0 0 860 236" role="img" aria-labelledby="title desc">
<title id="title">GitHub contribution heatmap</title>
<desc id="desc">Trailing GitHub contribution activity for smshagor-dev.</desc>
<style>
  .title{fill:#D4AF37;font:600 16px "SFMono-Regular",Consolas,monospace}
  .stat{fill:#c9d1d9;font:11px "SFMono-Regular",Consolas,monospace}
  .muted,.month,.weekday{fill:#7d8590;font:9px "SFMono-Regular",Consolas,monospace}
  .pending{fill:#7d8590;font:12px "SFMono-Regular",Consolas,monospace}
</style>
<rect x="1" y="1" width="858" height="234" rx="18" fill="#0d0d0d" stroke="#3b3218" stroke-width="2"/>
<text x="24" y="32" class="title">CONTRIBUTION SIGNAL</text>
<text x="24" y="57" class="stat">TOTAL <tspan fill="#D4AF37">5,870</tspan></text>
<text x="205" y="57" class="stat">CURRENT <tspan fill="#D4AF37">22d</tspan></text>
<text x="386" y="57" class="stat">LONGEST <tspan fill="#D4AF37">22d</tspan></text>
<text x="567" y="57" class="stat">BEST DAY <tspan fill="#D4AF37">846</tspan></text>
<text x="48" y="92" class="month">Jan</text><text x="113" y="92" class="month">Feb</text><text x="165" y="92" class="month">Mar</text><text x="217" y="92" class="month">Apr</text><text x="269" y="92" class="month">May</text><text x="334" y="92" class="month">Jun</text><text x="386" y="92" class="month">Jul</text><text x="438" y="92" class="month">Aug</text><text x="503" y="92" class="month">Sep</text><text x="555" y="92" class="month">Oct</text><text x="620" y="92" class="month">Nov</text><text x="672" y="92" class="month">Dec</text>
<text x="16" y="125" class="weekday">Mon</text><text x="16" y="151" class="weekday">Wed</text><text x="16" y="177" class="weekday">Fri</text>
<g><title>2026-01-01: 0 contributions</title><rect x="48" y="156" width="10" height="10" rx="2" fill="#161b22"/></g><g><title>2026-01-02: 0 contributions</title><rect x="48" y="169" width="10" height="10" rx="2" fill="#161b22"/></g><g><title>2026-01-03: 0 contributions</title><rect x="48" y="182" width="10" height="10" rx="2" fill="#161b22"/></g><g><title>2026-01-04: 0 contributions</title><rect x="61" y="104" width="10" height="10" rx="2" fill="#161b22"/></g><g><title>2026-01-05: 0 contributions</title><rect x="61" y="117" width="10" height="10" rx="2" fill="#161b22"/></g><g><title>2026-01-06: 0 contributions</title><rect x="61" y="130" width="10" height="10" rx="2" fill="#161b22"/></g><g><title>2026-01-07: 0 contributions</title><rect x="61" y="143" width="10" height="10" rx="2" fill="#161b22"/></g><g><title>2026-01-08: 0 contributions</title><rect x="61" y="156" width="10" height="10" rx="2" fill="#161b22"/></g><g><title>2026-01-09: 0 contributions</title><rect x="61" y="169" width="10" height="10" rx="2" fill="#161b22"/></g><g><title>2026-01-10: 0 contributions</title><rect x="61" y="182" width="10" height="10" rx="2" fill="#161b22"/></g><g><title>2026-01-11: 0 contributions</title><rect x="74" y="104" width="10" height="10" rx="2" fill="#161b22"/></g><g><title>2026-01-12: 0 contributions</title><rect x="74" y="117" width="10" height="10" rx="2" fill="#161b22"/></g><g><title>2026-01-13: 0 contributions</title><rect x="74" y="130" width="10" height="10" rx="2" fill="#161b22"/></g><g><title>2026-01-14: 0 contributions</title><rect x="74" y="143" width="10" height="10" rx="2" fill="#161b22"/></g><g><title>2026-01-15: 0 contributions</title><rect x="74" y="156" width="10" height="10" rx="2" fill="#161b22"/></g><g><title>2026-01-16: 0 contributions</title><rect x="74" y="169" width="10" height="10" rx="2" fill="#161b22"/></g><g><title>2026-01-17: 0 contributions</title><rect x="74" y="182" width="10" height="10" rx="2" fill="#161b22"/></g><g><title>2026-01-18: 0 contributions</title><rect x="87" y="104" width="10" height="10" rx="2" fill="#161b22"/></g><g><title>2026-01-19: 0 contributions</title><rect x="87" y="117" width="10" height="10" rx="2" fill="#161b22"/></g><g><title>2026-01-20: 0 contributions</title><rect x="87" y="130" width="10" height="10" rx="2" fill="#161b22"/></g><g><title>2026-01-21: 0 contributions</title><rect x="87" y="143" width="10" height="10" rx="2" fill="#161b22"/></g><g><title>2026-01-22: 0 contributions</title><rect x="87" y="156" width="10" height="10" rx="2" fill="#161b22"/></g><g><title>2026-01-23: 0 contributions</title><rect x="87" y="169" width="10" height="10" rx="2" fill="#161b22"/></g><g><title>2026-01-24: 0 contributions</title><rect x="87" y="182" width="10" height="10" rx="2" fill="#161b22"/></g><g><title>2026-01-25: 0 contributions</title><rect x="100" y="104" width="10" height="10" rx="2" fill="#161b22"/></g><g><title>2026-01-26: 0 contributions</title><rect x="100" y="117" width="10" height="10" rx="2" fill="#161b22"/></g><g><title>2026-01-27: 0 contributions</title><rect x="100" y="130" width="10" height="10" rx="2" fill="#161b22"/></g><g><title>2026-01-28: 0 contributions</title><rect x="100" y="143" width="10" height="10" rx="2" fill="#161b22"/></g><g><title>2026-01-29: 0 contributions</title><rect x="100" y="156" width="10" height="10" rx="2" fill="#161b22"/></g><g><title>2026-01-30: 0 contributions</title><rect x="100" y="169" width="10" height="10" rx="2" fill="#161b22"/></g><g><title>2026-01-31: 0 contributions</title><rect x="100" y="182" width="10" height="10" rx="2" fill="#161b22"/></g><g><title>2026-02-01: 0 contributions</title><rect x="113" y="104" width="10" height="10" rx="2" fill="#161b22"/></g><g><title>2026-02-02: 0 contributions</title><rect x="113" y="117" width="10" height="10" rx="2" fill="#161b22"/></g><g><title>2026-02-03: 3 contributions</title><rect x="113" y="130" width="10" height="10" rx="2" fill="#3b3118"/></g><g><title>2026-02-04: 0 contributions</title><rect x="113" y="143" width="10" height="10" rx="2" fill="#161b22"/></g><g><title>2026-02-05: 0 contributions</title><rect x="113" y="156" width="10" height="10" rx="2" fill="#161b22"/></g><g><title>2026-02-06: 0 contributions</title><rect x="113" y="169" width="10" height="10" rx="2" fill="#161b22"/></g><g><title>2026-02-07: 0 contributions</title><rect x="113" y="182" width="10" height="10" rx="2" fill="#161b22"/></g><g><title>2026-02-08: 0 contributions</title><rect x="126" y="104" width="10" height="10" rx="2" fill="#161b22"/></g><g><title>2026-02-09: 0 contributions</title><rect x="126" y="117" width="10" height="10" rx="2" fill="#161b22"/></g><g><title>2026-02-10: 0 contributions</title><rect x="126" y="130" width="10" height="10" rx="2" fill="#161b22"/></g><g><title>2026-02-11: 0 contributions</title><rect x="126" y="143" width="10" height="10" rx="2" fill="#161b22"/></g><g><title>2026-02-12: 6 contributions</title><rect x="126" y="156" width="10" height="10" rx="2" fill="#3b3118"/></g><g><title>2026-02-13: 3 contributions</title><rect x="126" y="169" width="10" height="10" rx="2" fill="#3b3118"/></g><g><title>2026-02-14: 2 contributions</title><rect x="126" y="182" width="10" height="10" rx="2" fill="#3b3118"/></g><g><title>2026-02-15: 7 contributions</title><rect x="139" y="104" width="10" height="10" rx="2" fill="#3b3118"/></g><g><title>2026-02-16: 9 contributions</title><rect x="139" y="117" width="10" height="10" rx="2" fill="#3b3118"/></g><g><title>2026-02-17: 26 contributions</title><rect x="139" y="130" width="10" height="10" rx="2" fill="#3b3118"/></g><g><title>2026-02-18: 0 contributions</title><rect x="139" y="143" width="10" height="10" rx="2" fill="#161b22"/></g><g><title>2026-02-19: 10 contributions</title><rect x="139" y="156" width="10" height="10" rx="2" fill="#3b3118"/></g><g><title>2026-02-20: 3 contributions</title><rect x="139" y="169" width="10" height="10" rx="2" fill="#3b3118"/></g><g><title>2026-02-21: 8 contributions</title><rect x="139" y="182" width="10" height="10" rx="2" fill="#3b3118"/></g><g><title>2026-02-22: 1 contribution</title><rect x="152" y="104" width="10" height="10" rx="2" fill="#3b3118"/></g><g><title>2026-02-23: 11 contributions</title><rect x="152" y="117" width="10" height="10" rx="2" fill="#3b3118"/></g><g><title>2026-02-24: 1 contribution</title><rect x="152" y="130" width="10" height="10" rx="2" fill="#3b3118"/></g><g><title>2026-02-25: 0 contributions</title><rect x="152" y="143" width="10" height="10" rx="2" fill="#161b22"/></g><g><title>2026-02-26: 2 contributions</title><rect x="152" y="156" width="10" height="10" rx="2" fill="#3b3118"/></g><g><title>2026-02-27: 0 contributions</title><rect x="152" y="169" width="10" height="10" rx="2" fill="#161b22"/></g><g><title>2026-02-28: 0 contributions</title><rect x="152" y="182" width="10" height="10" rx="2" fill="#161b22"/></g><g><title>2026-03-01: 0 contributions</title><rect x="165" y="104" width="10" height="10" rx="2" fill="#161b22"/></g><g><title>2026-03-02: 0 contributions</title><rect x="165" y="117" width="10" height="10" rx="2" fill="#161b22"/></g><g><title>2026-03-03: 12 contributions</title><rect x="165" y="130" width="10" height="10" rx="2" fill="#3b3118"/></g><g><title>2026-03-04: 2 contributions</title><rect x="165" y="143" width="10" height="10" rx="2" fill="#3b3118"/></g><g><title>2026-03-05: 2 contributions</title><rect x="165" y="156" width="10" height="10" rx="2" fill="#3b3118"/></g><g><title>2026-03-06: 3 contributions</title><rect x="165" y="169" width="10" height="10" rx="2" fill="#3b3118"/></g><g><title>2026-03-07: 0 contributions</title><rect x="165" y="182" width="10" height="10" rx="2" fill="#161b22"/></g><g><title>2026-03-08: 0 contributions</title><rect x="178" y="104" width="10" height="10" rx="2" fill="#161b22"/></g><g><title>2026-03-09: 4 contributions</title><rect x="178" y="117" width="10" height="10" rx="2" fill="#3b3118"/></g><g><title>2026-03-10: 2 contributions</title><rect x="178" y="130" width="10" height="10" rx="2" fill="#3b3118"/></g><g><title>2026-03-11: 2 contributions</title><rect x="178" y="143" width="10" height="10" rx="2" fill="#3b3118"/></g><g><title>2026-03-12: 2 contributions</title><rect x="178" y="156" width="10" height="10" rx="2" fill="#3b3118"/></g><g><title>2026-03-13: 2 contributions</title><rect x="178" y="169" width="10" height="10" rx="2" fill="#3b3118"/></g><g><title>2026-03-14: 1 contribution</title><rect x="178" y="182" width="10" height="10" rx="2" fill="#3b3118"/></g><g><title>2026-03-15: 2 contributions</title><rect x="191" y="104" width="10" height="10" rx="2" fill="#3b3118"/></g><g><title>2026-03-16: 0 contributions</title><rect x="191" y="117" width="10" height="10" rx="2" fill="#161b22"/></g><g><title>2026-03-17: 0 contributions</title><rect x="191" y="130" width="10" height="10" rx="2" fill="#161b22"/></g><g><title>2026-03-18: 2 contributions</title><rect x="191" y="143" width="10" height="10" rx="2" fill="#3b3118"/></g><g><title>2026-03-19: 2 contributions</title><rect x="191" y="156" width="10" height="10" rx="2" fill="#3b3118"/></g><g><title>2026-03-20: 0 contributions</title><rect x="191" y="169" width="10" height="10" rx="2" fill="#161b22"/></g><g><title>2026-03-21: 1 contribution</title><rect x="191" y="182" width="10" height="10" rx="2" fill="#3b3118"/></g><g><title>2026-03-22: 4 contributions</title><rect x="204" y="104" width="10" height="10" rx="2" fill="#3b3118"/></g><g><title>2026-03-23: 0 contributions</title><rect x="204" y="117" width="10" height="10" rx="2" fill="#161b22"/></g><g><title>2026-03-24: 2 contributions</title><rect x="204" y="130" width="10" height="10" rx="2" fill="#3b3118"/></g><g><title>2026-03-25: 1 contribution</title><rect x="204" y="143" width="10" height="10" rx="2" fill="#3b3118"/></g><g><title>2026-03-26: 0 contributions</title><rect x="204" y="156" width="10" height="10" rx="2" fill="#161b22"/></g><g><title>2026-03-27: 0 contributions</title><rect x="204" y="169" width="10" height="10" rx="2" fill="#161b22"/></g><g><title>2026-03-28: 0 contributions</title><rect x="204" y="182" width="10" height="10" rx="2" fill="#161b22"/></g><g><title>2026-03-29: 0 contributions</title><rect x="217" y="104" width="10" height="10" rx="2" fill="#161b22"/></g><g><title>2026-03-30: 1 contribution</title><rect x="217" y="117" width="10" height="10" rx="2" fill="#3b3118"/></g><g><title>2026-03-31: 5 contributions</title><rect x="217" y="130" width="10" height="10" rx="2" fill="#3b3118"/></g><g><title>2026-04-01: 1 contribution</title><rect x="217" y="143" width="10" height="10" rx="2" fill="#3b3118"/></g><g><title>2026-04-02: 1 contribution</title><rect x="217" y="156" width="10" height="10" rx="2" fill="#3b3118"/></g><g><title>2026-04-03: 0 contributions</title><rect x="217" y="169" width="10" height="10" rx="2" fill="#161b22"/></g><g><title>2026-04-04: 0 contributions</title><rect x="217" y="182" width="10" height="10" rx="2" fill="#161b22"/></g><g><title>2026-04-05: 0 contributions</title><rect x="230" y="104" width="10" height="10" rx="2" fill="#161b22"/></g><g><title>2026-04-06: 0 contributions</title><rect x="230" y="117" width="10" height="10" rx="2" fill="#161b22"/></g><g><title>2026-04-07: 5 contributions</title><rect x="230" y="130" width="10" height="10" rx="2" fill="#3b3118"/></g><g><title>2026-04-08: 3 contributions</title><rect x="230" y="143" width="10" height="10" rx="2" fill="#3b3118"/></g><g><title>2026-04-09: 0 contributions</title><rect x="230" y="156" width="10" height="10" rx="2" fill="#161b22"/></g><g><title>2026-04-10: 1 contribution</title><rect x="230" y="169" width="10" height="10" rx="2" fill="#3b3118"/></g><g><title>2026-04-11: 3 contributions</title><rect x="230" y="182" width="10" height="10" rx="2" fill="#3b3118"/></g><g><title>2026-04-12: 0 contributions</title><rect x="243" y="104" width="10" height="10" rx="2" fill="#161b22"/></g><g><title>2026-04-13: 0 contributions</title><rect x="243" y="117" width="10" height="10" rx="2" fill="#161b22"/></g><g><title>2026-04-14: 0 contributions</title><rect x="243" y="130" width="10" height="10" rx="2" fill="#161b22"/></g><g><title>2026-04-15: 0 contributions</title><rect x="243" y="143" width="10" height="10" rx="2" fill="#161b22"/></g><g><title>2026-04-16: 0 contributions</title><rect x="243" y="156" width="10" height="10" rx="2" fill="#161b22"/></g><g><title>2026-04-17: 0 contributions</title><rect x="243" y="169" width="10" height="10" rx="2" fill="#161b22"/></g><g><title>2026-04-18: 0 contributions</title><rect x="243" y="182" width="10" height="10" rx="2" fill="#161b22"/></g><g><title>2026-04-19: 0 contributions</title><rect x="256" y="104" width="10" height="10" rx="2" fill="#161b22"/></g><g><title>2026-04-20: 3 contributions</title><rect x="256" y="117" width="10" height="10" rx="2" fill="#3b3118"/></g><g><title>2026-04-21: 1 contribution</title><rect x="256" y="130" width="10" height="10" rx="2" fill="#3b3118"/></g><g><title>2026-04-22: 1 contribution</title><rect x="256" y="143" width="10" height="10" rx="2" fill="#3b3118"/></g><g><title>2026-04-23: 2 contributions</title><rect x="256" y="156" width="10" height="10" rx="2" fill="#3b3118"/></g><g><title>2026-04-24: 0 contributions</title><rect x="256" y="169" width="10" height="10" rx="2" fill="#161b22"/></g><g><title>2026-04-25: 4 contributions</title><rect x="256" y="182" width="10" height="10" rx="2" fill="#3b3118"/></g><g><title>2026-04-26: 1 contribution</title><rect x="269" y="104" width="10" height="10" rx="2" fill="#3b3118"/></g><g><title>2026-04-27: 1 contribution</title><rect x="269" y="117" width="10" height="10" rx="2" fill="#3b3118"/></g><g><title>2026-04-28: 3 contributions</title><rect x="269" y="130" width="10" height="10" rx="2" fill="#3b3118"/></g><g><title>2026-04-29: 2 contributions</title><rect x="269" y="143" width="10" height="10" rx="2" fill="#3b3118"/></g><g><title>2026-04-30: 2 contributions</title><rect x="269" y="156" width="10" height="10" rx="2" fill="#3b3118"/></g><g><title>2026-05-01: 3 contributions</title><rect x="269" y="169" width="10" height="10" rx="2" fill="#3b3118"/></g><g><title>2026-05-02: 3 contributions</title><rect x="269" y="182" width="10" height="10" rx="2" fill="#3b3118"/></g><g><title>2026-05-03: 5 contributions</title><rect x="282" y="104" width="10" height="10" rx="2" fill="#3b3118"/></g><g><title>2026-05-04: 21 contributions</title><rect x="282" y="117" width="10" height="10" rx="2" fill="#3b3118"/></g><g><title>2026-05-05: 0 contributions</title><rect x="282" y="130" width="10" height="10" rx="2" fill="#161b22"/></g><g><title>2026-05-06: 11 contributions</title><rect x="282" y="143" width="10" height="10" rx="2" fill="#3b3118"/></g><g><title>2026-05-07: 2 contributions</title><rect x="282" y="156" width="10" height="10" rx="2" fill="#3b3118"/></g><g><title>2026-05-08: 0 contributions</title><rect x="282" y="169" width="10" height="10" rx="2" fill="#161b22"/></g><g><title>2026-05-09: 2 contributions</title><rect x="282" y="182" width="10" height="10" rx="2" fill="#3b3118"/></g><g><title>2026-05-10: 3 contributions</title><rect x="295" y="104" width="10" height="10" rx="2" fill="#3b3118"/></g><g><title>2026-05-11: 0 contributions</title><rect x="295" y="117" width="10" height="10" rx="2" fill="#161b22"/></g><g><title>2026-05-12: 7 contributions</title><rect x="295" y="130" width="10" height="10" rx="2" fill="#3b3118"/></g><g><title>2026-05-13: 1 contribution</title><rect x="295" y="143" width="10" height="10" rx="2" fill="#3b3118"/></g><g><title>2026-05-14: 6 contributions</title><rect x="295" y="156" width="10" height="10" rx="2" fill="#3b3118"/></g><g><title>2026-05-15: 3 contributions</title><rect x="295" y="169" width="10" height="10" rx="2" fill="#3b3118"/></g><g><title>2026-05-16: 3 contributions</title><rect x="295" y="182" width="10" height="10" rx="2" fill="#3b3118"/></g><g><title>2026-05-17: 10 contributions</title><rect x="308" y="104" width="10" height="10" rx="2" fill="#3b3118"/></g><g><title>2026-05-18: 12 contributions</title><rect x="308" y="117" width="10" height="10" rx="2" fill="#3b3118"/></g><g><title>2026-05-19: 8 contributions</title><rect x="308" y="130" width="10" height="10" rx="2" fill="#3b3118"/></g><g><title>2026-05-20: 8 contributions</title><rect x="308" y="143" width="10" height="10" rx="2" fill="#3b3118"/></g><g><title>2026-05-21: 4 contributions</title><rect x="308" y="156" width="10" height="10" rx="2" fill="#3b3118"/></g><g><title>2026-05-22: 0 contributions</title><rect x="308" y="169" width="10" height="10" rx="2" fill="#161b22"/></g><g><title>2026-05-23: 0 contributions</title><rect x="308" y="182" width="10" height="10" rx="2" fill="#161b22"/></g><g><title>2026-05-24: 0 contributions</title><rect x="321" y="104" width="10" height="10" rx="2" fill="#161b22"/></g><g><title>2026-05-25: 0 contributions</title><rect x="321" y="117" width="10" height="10" rx="2" fill="#161b22"/></g><g><title>2026-05-26: 0 contributions</title><rect x="321" y="130" width="10" height="10" rx="2" fill="#161b22"/></g><g><title>2026-05-27: 3 contributions</title><rect x="321" y="143" width="10" height="10" rx="2" fill="#3b3118"/></g><g><title>2026-05-28: 1 contribution</title><rect x="321" y="156" width="10" height="10" rx="2" fill="#3b3118"/></g><g><title>2026-05-29: 5 contributions</title><rect x="321" y="169" width="10" height="10" rx="2" fill="#3b3118"/></g><g><title>2026-05-30: 3 contributions</title><rect x="321" y="182" width="10" height="10" rx="2" fill="#3b3118"/></g><g><title>2026-05-31: 20 contributions</title><rect x="334" y="104" width="10" height="10" rx="2" fill="#3b3118"/></g><g><title>2026-06-01: 1 contribution</title><rect x="334" y="117" width="10" height="10" rx="2" fill="#3b3118"/></g><g><title>2026-06-02: 4 contributions</title><rect x="334" y="130" width="10" height="10" rx="2" fill="#3b3118"/></g><g><title>2026-06-03: 0 contributions</title><rect x="334" y="143" width="10" height="10" rx="2" fill="#161b22"/></g><g><title>2026-06-04: 5 contributions</title><rect x="334" y="156" width="10" height="10" rx="2" fill="#3b3118"/></g><g><title>2026-06-05: 9 contributions</title><rect x="334" y="169" width="10" height="10" rx="2" fill="#3b3118"/></g><g><title>2026-06-06: 0 contributions</title><rect x="334" y="182" width="10" height="10" rx="2" fill="#161b22"/></g><g><title>2026-06-07: 0 contributions</title><rect x="347" y="104" width="10" height="10" rx="2" fill="#161b22"/></g><g><title>2026-06-08: 1 contribution</title><rect x="347" y="117" width="10" height="10" rx="2" fill="#3b3118"/></g><g><title>2026-06-09: 6 contributions</title><rect x="347" y="130" width="10" height="10" rx="2" fill="#3b3118"/></g><g><title>2026-06-10: 0 contributions</title><rect x="347" y="143" width="10" height="10" rx="2" fill="#161b22"/></g><g><title>2026-06-11: 0 contributions</title><rect x="347" y="156" width="10" height="10" rx="2" fill="#161b22"/></g><g><title>2026-06-12: 1 contribution</title><rect x="347" y="169" width="10" height="10" rx="2" fill="#3b3118"/></g><g><title>2026-06-13: 2 contributions</title><rect x="347" y="182" width="10" height="10" rx="2" fill="#3b3118"/></g><g><title>2026-06-14: 0 contributions</title><rect x="360" y="104" width="10" height="10" rx="2" fill="#161b22"/></g><g><title>2026-06-15: 2 contributions</title><rect x="360" y="117" width="10" height="10" rx="2" fill="#3b3118"/></g><g><title>2026-06-16: 0 contributions</title><rect x="360" y="130" width="10" height="10" rx="2" fill="#161b22"/></g><g><title>2026-06-17: 4 contributions</title><rect x="360" y="143" width="10" height="10" rx="2" fill="#3b3118"/></g><g><title>2026-06-18: 0 contributions</title><rect x="360" y="156" width="10" height="10" rx="2" fill="#161b22"/></g><g><title>2026-06-19: 3 contributions</title><rect x="360" y="169" width="10" height="10" rx="2" fill="#3b3118"/></g><g><title>2026-06-20: 1 contribution</title><rect x="360" y="182" width="10" height="10" rx="2" fill="#3b3118"/></g><g><title>2026-06-21: 2 contributions</title><rect x="373" y="104" width="10" height="10" rx="2" fill="#3b3118"/></g><g><title>2026-06-22: 0 contributions</title><rect x="373" y="117" width="10" height="10" rx="2" fill="#161b22"/></g><g><title>2026-06-23: 1 contribution</title><rect x="373" y="130" width="10" height="10" rx="2" fill="#3b3118"/></g><g><title>2026-06-24: 1 contribution</title><rect x="373" y="143" width="10" height="10" rx="2" fill="#3b3118"/></g><g><title>2026-06-25: 8 contributions</title><rect x="373" y="156" width="10" height="10" rx="2" fill="#3b3118"/></g><g><title>2026-06-26: 2 contributions</title><rect x="373" y="169" width="10" height="10" rx="2" fill="#3b3118"/></g><g><title>2026-06-27: 7 contributions</title><rect x="373" y="182" width="10" height="10" rx="2" fill="#3b3118"/></g><g><title>2026-06-28: 4 contributions</title><rect x="386" y="104" width="10" height="10" rx="2" fill="#3b3118"/></g><g><title>2026-06-29: 0 contributions</title><rect x="386" y="117" width="10" height="10" rx="2" fill="#161b22"/></g><g><title>2026-06-30: 2 contributions</title><rect x="386" y="130" width="10" height="10" rx="2" fill="#3b3118"/></g><g><title>2026-07-01: 1 contribution</title><rect x="386" y="143" width="10" height="10" rx="2" fill="#3b3118"/></g><g><title>2026-07-02: 5 contributions</title><rect x="386" y="156" width="10" height="10" rx="2" fill="#3b3118"/></g><g><title>2026-07-03: 5 contributions</title><rect x="386" y="169" width="10" height="10" rx="2" fill="#3b3118"/></g><g><title>2026-07-04: 0 contributions</title><rect x="386" y="182" width="10" height="10" rx="2" fill="#161b22"/></g><g><title>2026-07-05: 0 contributions</title><rect x="399" y="104" width="10" height="10" rx="2" fill="#161b22"/></g><g><title>2026-07-06: 0 contributions</title><rect x="399" y="117" width="10" height="10" rx="2" fill="#161b22"/></g><g><title>2026-07-07: 0 contributions</title><rect x="399" y="130" width="10" height="10" rx="2" fill="#161b22"/></g><g><title>2026-07-08: 3 contributions</title><rect x="399" y="143" width="10" height="10" rx="2" fill="#3b3118"/></g><g><title>2026-07-09: 6 contributions</title><rect x="399" y="156" width="10" height="10" rx="2" fill="#3b3118"/></g><g><title>2026-07-10: 1 contribution</title><rect x="399" y="169" width="10" height="10" rx="2" fill="#3b3118"/></g><g><title>2026-07-11: 3 contributions</title><rect x="399" y="182" width="10" height="10" rx="2" fill="#3b3118"/></g><g><title>2026-07-12: 0 contributions</title><rect x="412" y="104" width="10" height="10" rx="2" fill="#161b22"/></g><g><title>2026-07-13: 2 contributions</title><rect x="412" y="117" width="10" height="10" rx="2" fill="#3b3118"/></g><g><title>2026-07-14: 33 contributions</title><rect x="412" y="130" width="10" height="10" rx="2" fill="#3b3118"/></g><g><title>2026-07-15: 6 contributions</title><rect x="412" y="143" width="10" height="10" rx="2" fill="#3b3118"/></g><g><title>2026-07-16: 16 contributions</title><rect x="412" y="156" width="10" height="10" rx="2" fill="#3b3118"/></g><g><title>2026-07-17: 1 contribution</title><rect x="412" y="169" width="10" height="10" rx="2" fill="#3b3118"/></g><g><title>2026-07-18: 3 contributions</title><rect x="412" y="182" width="10" height="10" rx="2" fill="#3b3118"/></g><g><title>2026-07-19: 3 contributions</title><rect x="425" y="104" width="10" height="10" rx="2" fill="#3b3118"/></g><g><title>2026-07-20: 13 contributions</title><rect x="425" y="117" width="10" height="10" rx="2" fill="#3b3118"/></g><g><title>2026-07-21: 5 contributions</title><rect x="425" y="130" width="10" height="10" rx="2" fill="#3b3118"/></g><g><title>2026-07-22: 18 contributions</title><rect x="425" y="143" width="10" height="10" rx="2" fill="#3b3118"/></g><g><title>2026-07-23: 2 contributions</title><rect x="425" y="156" width="10" height="10" rx="2" fill="#3b3118"/></g><g><title>2026-07-24: 1 contribution</title><rect x="425" y="169" width="10" height="10" rx="2" fill="#3b3118"/></g><g><title>2026-07-25: 0 contributions</title><rect x="425" y="182" width="10" height="10" rx="2" fill="#161b22"/></g><g><title>2026-07-26: 0 contributions</title><rect x="438" y="104" width="10" height="10" rx="2" fill="#161b22"/></g><g><title>2026-07-27: 1 contribution</title><rect x="438" y="117" width="10" height="10" rx="2" fill="#3b3118"/></g><g><title>2026-07-28: 1 contribution</title><rect x="438" y="130" width="10" height="10" rx="2" fill="#3b3118"/></g><g><title>2026-07-29: 33 contributions</title><rect x="438" y="143" width="10" height="10" rx="2" fill="#3b3118"/></g><g><title>2026-07-30: 3 contributions</title><rect x="438" y="156" width="10" height="10" rx="2" fill="#3b3118"/></g><g><title>2026-07-31: 0 contributions</title><rect x="438" y="169" width="10" height="10" rx="2" fill="#161b22"/></g><g><title>2026-08-01: 4 contributions</title><rect x="438" y="182" width="10" height="10" rx="2" fill="#3b3118"/></g><g><title>2026-08-02: 0 contributions</title><rect x="451" y="104" width="10" height="10" rx="2" fill="#161b22"/></g><g><title>2026-08-03: 0 contributions</title><rect x="451" y="117" width="10" height="10" rx="2" fill="#161b22"/></g><g><title>2026-08-04: 0 contributions</title><rect x="451" y="130" width="10" height="10" rx="2" fill="#161b22"/></g><g><title>2026-08-05: 0 contributions</title><rect x="451" y="143" width="10" height="10" rx="2" fill="#161b22"/></g><g><title>2026-08-06: 0 contributions</title><rect x="451" y="156" width="10" height="10" rx="2" fill="#161b22"/></g><g><title>2026-08-07: 0 contributions</title><rect x="451" y="169" width="10" height="10" rx="2" fill="#161b22"/></g><g><title>2026-08-08: 0 contributions</title><rect x="451" y="182" width="10" height="10" rx="2" fill="#161b22"/></g><g><title>2026-08-09: 0 contributions</title><rect x="464" y="104" width="10" height="10" rx="2" fill="#161b22"/></g><g><title>2026-08-10: 0 contributions</title><rect x="464" y="117" width="10" height="10" rx="2" fill="#161b22"/></g><g><title>2026-08-11: 0 contributions</title><rect x="464" y="130" width="10" height="10" rx="2" fill="#161b22"/></g><g><title>2026-08-12: 3 contributions</title><rect x="464" y="143" width="10" height="10" rx="2" fill="#3b3118"/></g><g><title>2026-08-13: 0 contributions</title><rect x="464" y="156" width="10" height="10" rx="2" fill="#161b22"/></g><g><title>2026-08-14: 0 contributions</title><rect x="464" y="169" width="10" height="10" rx="2" fill="#161b22"/></g><g><title>2026-08-15: 2 contributions</title><rect x="464" y="182" width="10" height="10" rx="2" fill="#3b3118"/></g><g><title>2026-08-16: 8 contributions</title><rect x="477" y="104" width="10" height="10" rx="2" fill="#3b3118"/></g><g><title>2026-08-17: 9 contributions</title><rect x="477" y="117" width="10" height="10" rx="2" fill="#3b3118"/></g><g><title>2026-08-18: 253 contributions</title><rect x="477" y="130" width="10" height="10" rx="2" fill="#705b1d"/></g><g><title>2026-08-19: 329 contributions</title><rect x="477" y="143" width="10" height="10" rx="2" fill="#705b1d"/></g><g><title>2026-08-20: 73 contributions</title><rect x="477" y="156" width="10" height="10" rx="2" fill="#3b3118"/></g><g><title>2026-08-21: 242 contributions</title><rect x="477" y="169" width="10" height="10" rx="2" fill="#705b1d"/></g><g><title>2026-08-22: 265 contributions</title><rect x="477" y="182" width="10" height="10" rx="2" fill="#705b1d"/></g><g><title>2026-08-23: 455 contributions</title><rect x="490" y="104" width="10" height="10" rx="2" fill="#a98227"/></g><g><title>2026-08-24: 11 contributions</title><rect x="490" y="117" width="10" height="10" rx="2" fill="#3b3118"/></g><g><title>2026-08-25: 565 contributions</title><rect x="490" y="130" width="10" height="10" rx="2" fill="#a98227"/></g><g><title>2026-08-26: 846 contributions</title><rect x="490" y="143" width="10" height="10" rx="2" fill="#D4AF37"/></g><g><title>2026-08-27: 306 contributions</title><rect x="490" y="156" width="10" height="10" rx="2" fill="#705b1d"/></g><g><title>2026-08-28: 441 contributions</title><rect x="490" y="169" width="10" height="10" rx="2" fill="#a98227"/></g><g><title>2026-08-29: 496 contributions</title><rect x="490" y="182" width="10" height="10" rx="2" fill="#a98227"/></g><g><title>2026-08-30: 73 contributions</title><rect x="503" y="104" width="10" height="10" rx="2" fill="#3b3118"/></g><g><title>2026-08-31: 321 contributions</title><rect x="503" y="117" width="10" height="10" rx="2" fill="#705b1d"/></g><g><title>2026-09-01: 71 contributions</title><rect x="503" y="130" width="10" height="10" rx="2" fill="#3b3118"/></g><g><title>2026-09-02: 124 contributions</title><rect x="503" y="143" width="10" height="10" rx="2" fill="#3b3118"/></g><g><title>2026-09-03: 78 contributions</title><rect x="503" y="156" width="10" height="10" rx="2" fill="#3b3118"/></g><g><title>2026-09-04: 335 contributions</title><rect x="503" y="169" width="10" height="10" rx="2" fill="#705b1d"/></g><g><title>2026-09-05: 7 contributions</title><rect x="503" y="182" width="10" height="10" rx="2" fill="#3b3118"/></g><g><title>2026-09-06: 0 contributions</title><rect x="516" y="104" width="10" height="10" rx="2" fill="#161b22"/></g><g><title>2026-09-07: 0 contributions</title><rect x="516" y="117" width="10" height="10" rx="2" fill="#161b22"/></g><g><title>2026-09-08: 0 contributions</title><rect x="516" y="130" width="10" height="10" rx="2" fill="#161b22"/></g><g><title>2026-09-09: 0 contributions</title><rect x="516" y="143" width="10" height="10" rx="2" fill="#161b22"/></g><g><title>2026-09-10: 0 contributions</title><rect x="516" y="156" width="10" height="10" rx="2" fill="#161b22"/></g><g><title>2026-09-11: 0 contributions</title><rect x="516" y="169" width="10" height="10" rx="2" fill="#161b22"/></g><g><title>2026-09-12: 0 contributions</title><rect x="516" y="182" width="10" height="10" rx="2" fill="#161b22"/></g><g><title>2026-09-13: 0 contributions</title><rect x="529" y="104" width="10" height="10" rx="2" fill="#161b22"/></g><g><title>2026-09-14: 0 contributions</title><rect x="529" y="117" width="10" height="10" rx="2" fill="#161b22"/></g><g><title>2026-09-15: 0 contributions</title><rect x="529" y="130" width="10" height="10" rx="2" fill="#161b22"/></g><g><title>2026-09-16: 0 contributions</title><rect x="529" y="143" width="10" height="10" rx="2" fill="#161b22"/></g><g><title>2026-09-17: 0 contributions</title><rect x="529" y="156" width="10" height="10" rx="2" fill="#161b22"/></g><g><title>2026-09-18: 0 contributions</title><rect x="529" y="169" width="10" height="10" rx="2" fill="#161b22"/></g><g><title>2026-09-19: 0 contributions</title><rect x="529" y="182" width="10" height="10" rx="2" fill="#161b22"/></g><g><title>2026-09-20: 0 contributions</title><rect x="542" y="104" width="10" height="10" rx="2" fill="#161b22"/></g><g><title>2026-09-21: 0 contributions</title><rect x="542" y="117" width="10" height="10" rx="2" fill="#161b22"/></g><g><title>2026-09-22: 0 contributions</title><rect x="542" y="130" width="10" height="10" rx="2" fill="#161b22"/></g><g><title>2026-09-23: 0 contributions</title><rect x="542" y="143" width="10" height="10" rx="2" fill="#161b22"/></g><g><title>2026-09-24: 0 contributions</title><rect x="542" y="156" width="10" height="10" rx="2" fill="#161b22"/></g><g><title>2026-09-25: 0 contributions</title><rect x="542" y="169" width="10" height="10" rx="2" fill="#161b22"/></g><g><title>2026-09-26: 0 contributions</title><rect x="542" y="182" width="10" height="10" rx="2" fill="#161b22"/></g><g><title>2026-09-27: 0 contributions</title><rect x="555" y="104" width="10" height="10" rx="2" fill="#161b22"/></g><g><title>2026-09-28: 0 contributions</title><rect x="555" y="117" width="10" height="10" rx="2" fill="#161b22"/></g><g><title>2026-09-29: 0 contributions</title><rect x="555" y="130" width="10" height="10" rx="2" fill="#161b22"/></g><g><title>2026-09-30: 0 contributions</title><rect x="555" y="143" width="10" height="10" rx="2" fill="#161b22"/></g><g><title>2026-10-01: 0 contributions</title><rect x="555" y="156" width="10" height="10" rx="2" fill="#161b22"/></g><g><title>2026-10-02: 0 contributions</title><rect x="555" y="169" width="10" height="10" rx="2" fill="#161b22"/></g><g><title>2026-10-03: 0 contributions</title><rect x="555" y="182" width="10" height="10" rx="2" fill="#161b22"/></g><g><title>2026-10-04: 0 contributions</title><rect x="568" y="104" width="10" height="10" rx="2" fill="#161b22"/></g><g><title>2026-10-05: 0 contributions</title><rect x="568" y="117" width="10" height="10" rx="2" fill="#161b22"/></g><g><title>2026-10-06: 0 contributions</title><rect x="568" y="130" width="10" height="10" rx="2" fill="#161b22"/></g><g><title>2026-10-07: 0 contributions</title><rect x="568" y="143" width="10" height="10" rx="2" fill="#161b22"/></g><g><title>2026-10-08: 0 contributions</title><rect x="568" y="156" width="10" height="10" rx="2" fill="#161b22"/></g><g><title>2026-10-09: 0 contributions</title><rect x="568" y="169" width="10" height="10" rx="2" fill="#161b22"/></g><g><title>2026-10-10: 0 contributions</title><rect x="568" y="182" width="10" height="10" rx="2" fill="#161b22"/></g><g><title>2026-10-11: 0 contributions</title><rect x="581" y="104" width="10" height="10" rx="2" fill="#161b22"/></g><g><title>2026-10-12: 0 contributions</title><rect x="581" y="117" width="10" height="10" rx="2" fill="#161b22"/></g><g><title>2026-10-13: 0 contributions</title><rect x="581" y="130" width="10" height="10" rx="2" fill="#161b22"/></g><g><title>2026-10-14: 0 contributions</title><rect x="581" y="143" width="10" height="10" rx="2" fill="#161b22"/></g><g><title>2026-10-15: 0 contributions</title><rect x="581" y="156" width="10" height="10" rx="2" fill="#161b22"/></g><g><title>2026-10-16: 0 contributions</title><rect x="581" y="169" width="10" height="10" rx="2" fill="#161b22"/></g><g><title>2026-10-17: 0 contributions</title><rect x="581" y="182" width="10" height="10" rx="2" fill="#161b22"/></g><g><title>2026-10-18: 0 contributions</title><rect x="594" y="104" width="10" height="10" rx="2" fill="#161b22"/></g><g><title>2026-10-19: 0 contributions</title><rect x="594" y="117" width="10" height="10" rx="2" fill="#161b22"/></g><g><title>2026-10-20: 0 contributions</title><rect x="594" y="130" width="10" height="10" rx="2" fill="#161b22"/></g><g><title>2026-10-21: 0 contributions</title><rect x="594" y="143" width="10" height="10" rx="2" fill="#161b22"/></g><g><title>2026-10-22: 0 contributions</title><rect x="594" y="156" width="10" height="10" rx="2" fill="#161b22"/></g><g><title>2026-10-23: 0 contributions</title><rect x="594" y="169" width="10" height="10" rx="2" fill="#161b22"/></g><g><title>2026-10-24: 0 contributions</title><rect x="594" y="182" width="10" height="10" rx="2" fill="#161b22"/></g><g><title>2026-10-25: 0 contributions</title><rect x="607" y="104" width="10" height="10" rx="2" fill="#161b22"/></g><g><title>2026-10-26: 0 contributions</title><rect x="607" y="117" width="10" height="10" rx="2" fill="#161b22"/></g><g><title>2026-10-27: 0 contributions</title><rect x="607" y="130" width="10" height="10" rx="2" fill="#161b22"/></g><g><title>2026-10-28: 0 contributions</title><rect x="607" y="143" width="10" height="10" rx="2" fill="#161b22"/></g><g><title>2026-10-29: 0 contributions</title><rect x="607" y="156" width="10" height="10" rx="2" fill="#161b22"/></g><g><title>2026-10-30: 0 contributions</title><rect x="607" y="169" width="10" height="10" rx="2" fill="#161b22"/></g><g><title>2026-10-31: 0 contributions</title><rect x="607" y="182" width="10" height="10" rx="2" fill="#161b22"/></g><g><title>2026-11-01: 0 contributions</title><rect x="620" y="104" width="10" height="10" rx="2" fill="#161b22"/></g><g><title>2026-11-02: 0 contributions</title><rect x="620" y="117" width="10" height="10" rx="2" fill="#161b22"/></g><g><title>2026-11-03: 0 contributions</title><rect x="620" y="130" width="10" height="10" rx="2" fill="#161b22"/></g><g><title>2026-11-04: 0 contributions</title><rect x="620" y="143" width="10" height="10" rx="2" fill="#161b22"/></g><g><title>2026-11-05: 0 contributions</title><rect x="620" y="156" width="10" height="10" rx="2" fill="#161b22"/></g><g><title>2026-11-06: 0 contributions</title><rect x="620" y="169" width="10" height="10" rx="2" fill="#161b22"/></g><g><title>2026-11-07: 0 contributions</title><rect x="620" y="182" width="10" height="10" rx="2" fill="#161b22"/></g><g><title>2026-11-08: 0 contributions</title><rect x="633" y="104" width="10" height="10" rx="2" fill="#161b22"/></g><g><title>2026-11-09: 0 contributions</title><rect x="633" y="117" width="10" height="10" rx="2" fill="#161b22"/></g><g><title>2026-11-10: 0 contributions</title><rect x="633" y="130" width="10" height="10" rx="2" fill="#161b22"/></g><g><title>2026-11-11: 0 contributions</title><rect x="633" y="143" width="10" height="10" rx="2" fill="#161b22"/></g><g><title>2026-11-12: 0 contributions</title><rect x="633" y="156" width="10" height="10" rx="2" fill="#161b22"/></g><g><title>2026-11-13: 0 contributions</title><rect x="633" y="169" width="10" height="10" rx="2" fill="#161b22"/></g><g><title>2026-11-14: 0 contributions</title><rect x="633" y="182" width="10" height="10" rx="2" fill="#161b22"/></g><g><title>2026-11-15: 0 contributions</title><rect x="646" y="104" width="10" height="10" rx="2" fill="#161b22"/></g><g><title>2026-11-16: 0 contributions</title><rect x="646" y="117" width="10" height="10" rx="2" fill="#161b22"/></g><g><title>2026-11-17: 0 contributions</title><rect x="646" y="130" width="10" height="10" rx="2" fill="#161b22"/></g><g><title>2026-11-18: 0 contributions</title><rect x="646" y="143" width="10" height="10" rx="2" fill="#161b22"/></g><g><title>2026-11-19: 0 contributions</title><rect x="646" y="156" width="10" height="10" rx="2" fill="#161b22"/></g><g><title>2026-11-20: 0 contributions</title><rect x="646" y="169" width="10" height="10" rx="2" fill="#161b22"/></g><g><title>2026-11-21: 0 contributions</title><rect x="646" y="182" width="10" height="10" rx="2" fill="#161b22"/></g><g><title>2026-11-22: 0 contributions</title><rect x="659" y="104" width="10" height="10" rx="2" fill="#161b22"/></g><g><title>2026-11-23: 0 contributions</title><rect x="659" y="117" width="10" height="10" rx="2" fill="#161b22"/></g><g><title>2026-11-24: 0 contributions</title><rect x="659" y="130" width="10" height="10" rx="2" fill="#161b22"/></g><g><title>2026-11-25: 0 contributions</title><rect x="659" y="143" width="10" height="10" rx="2" fill="#161b22"/></g><g><title>2026-11-26: 0 contributions</title><rect x="659" y="156" width="10" height="10" rx="2" fill="#161b22"/></g><g><title>2026-11-27: 0 contributions</title><rect x="659" y="169" width="10" height="10" rx="2" fill="#161b22"/></g><g><title>2026-11-28: 0 contributions</title><rect x="659" y="182" width="10" height="10" rx="2" fill="#161b22"/></g><g><title>2026-11-29: 0 contributions</title><rect x="672" y="104" width="10" height="10" rx="2" fill="#161b22"/></g><g><title>2026-11-30: 0 contributions</title><rect x="672" y="117" width="10" height="10" rx="2" fill="#161b22"/></g><g><title>2026-12-01: 0 contributions</title><rect x="672" y="130" width="10" height="10" rx="2" fill="#161b22"/></g><g><title>2026-12-02: 0 contributions</title><rect x="672" y="143" width="10" height="10" rx="2" fill="#161b22"/></g><g><title>2026-12-03: 0 contributions</title><rect x="672" y="156" width="10" height="10" rx="2" fill="#161b22"/></g><g><title>2026-12-04: 0 contributions</title><rect x="672" y="169" width="10" height="10" rx="2" fill="#161b22"/></g><g><title>2026-12-05: 0 contributions</title><rect x="672" y="182" width="10" height="10" rx="2" fill="#161b22"/></g><g><title>2026-12-06: 0 contributions</title><rect x="685" y="104" width="10" height="10" rx="2" fill="#161b22"/></g><g><title>2026-12-07: 0 contributions</title><rect x="685" y="117" width="10" height="10" rx="2" fill="#161b22"/></g><g><title>2026-12-08: 0 contributions</title><rect x="685" y="130" width="10" height="10" rx="2" fill="#161b22"/></g><g><title>2026-12-09: 0 contributions</title><rect x="685" y="143" width="10" height="10" rx="2" fill="#161b22"/></g><g><title>2026-12-10: 0 contributions</title><rect x="685" y="156" width="10" height="10" rx="2" fill="#161b22"/></g><g><title>2026-12-11: 0 contributions</title><rect x="685" y="169" width="10" height="10" rx="2" fill="#161b22"/></g><g><title>2026-12-12: 0 contributions</title><rect x="685" y="182" width="10" height="10" rx="2" fill="#161b22"/></g><g><title>2026-12-13: 0 contributions</title><rect x="698" y="104" width="10" height="10" rx="2" fill="#161b22"/></g><g><title>2026-12-14: 0 contributions</title><rect x="698" y="117" width="10" height="10" rx="2" fill="#161b22"/></g><g><title>2026-12-15: 0 contributions</title><rect x="698" y="130" width="10" height="10" rx="2" fill="#161b22"/></g><g><title>2026-12-16: 0 contributions</title><rect x="698" y="143" width="10" height="10" rx="2" fill="#161b22"/></g><g><title>2026-12-17: 0 contributions</title><rect x="698" y="156" width="10" height="10" rx="2" fill="#161b22"/></g><g><title>2026-12-18: 0 contributions</title><rect x="698" y="169" width="10" height="10" rx="2" fill="#161b22"/></g><g><title>2026-12-19: 0 contributions</title><rect x="698" y="182" width="10" height="10" rx="2" fill="#161b22"/></g><g><title>2026-12-20: 0 contributions</title><rect x="711" y="104" width="10" height="10" rx="2" fill="#161b22"/></g><g><title>2026-12-21: 0 contributions</title><rect x="711" y="117" width="10" height="10" rx="2" fill="#161b22"/></g><g><title>2026-12-22: 0 contributions</title><rect x="711" y="130" width="10" height="10" rx="2" fill="#161b22"/></g><g><title>2026-12-23: 0 contributions</title><rect x="711" y="143" width="10" height="10" rx="2" fill="#161b22"/></g><g><title>2026-12-24: 0 contributions</title><rect x="711" y="156" width="10" height="10" rx="2" fill="#161b22"/></g><g><title>2026-12-25: 0 contributions</title><rect x="711" y="169" width="10" height="10" rx="2" fill="#161b22"/></g><g><title>2026-12-26: 0 contributions</title><rect x="711" y="182" width="10" height="10" rx="2" fill="#161b22"/></g><g><title>2026-12-27: 0 contributions</title><rect x="724" y="104" width="10" height="10" rx="2" fill="#161b22"/></g><g><title>2026-12-28: 0 contributions</title><rect x="724" y="117" width="10" height="10" rx="2" fill="#161b22"/></g><g><title>2026-12-29: 0 contributions</title><rect x="724" y="130" width="10" height="10" rx="2" fill="#161b22"/></g><g><title>2026-12-30: 0 contributions</title><rect x="724" y="143" width="10" height="10" rx="2" fill="#161b22"/></g><g><title>2026-12-31: 0 contributions</title><rect x="724" y="156" width="10" height="10" rx="2" fill="#161b22"/></g>

<text x="724" y="214" class="muted">Less</text><rect x="756" y="205" width="10" height="10" rx="2" fill="#161b22"/><rect x="772" y="205" width="10" height="10" rx="2" fill="#3b3118"/><rect x="788" y="205" width="10" height="10" rx="2" fill="#705b1d"/><rect x="804" y="205" width="10" height="10" rx="2" fill="#a98227"/><rect x="820" y="205" width="10" height="10" rx="2" fill="#D4AF37"/><text x="840" y="214" class="muted">More</text>
</svg>