<svg xmlns="http://www.w3.org/2000/svg" width="1200" height="600" viewBox="0 0 1200 600" role="img" aria-labelledby="t d"><title id="t">CyberPhotonics SPR</title><desc id="d">Cinematic cyber-photonic security cover with optical waveguide, secure sensing and resilient system signals.</desc><defs><linearGradient id="bg" x2="1" y2="1"><stop stop-color="#050607"/><stop offset=".55" stop-color="#100817"/><stop offset="1" stop-color="#111007"/></linearGradient><radialGradient id="a"><stop stop-color="#c84dff" stop-opacity=".25"/><stop offset=".55" stop-color="#4de8ff" stop-opacity=".09"/><stop offset="1" stop-color="#000" stop-opacity="0"/></radialGradient><linearGradient id="beam"><stop stop-color="#66efff"/><stop offset=".48" stop-color="#d55cff"/><stop offset="1" stop-color="#d4af37"/></linearGradient><filter id="glow"><feGaussianBlur stdDeviation="9" result="b"/><feMerge><feMergeNode in="b"/><feMergeNode in="SourceGraphic"/></feMerge></filter></defs><rect width="1200" height="600" rx="28" fill="url(#bg)"/><circle cx="900" cy="290" r="300" fill="url(#a)"/><g opacity=".08" stroke="#dc8cff"><path d="M0 70H1200M0 140H1200M0 210H1200M0 280H1200M0 350H1200M0 420H1200M0 490H1200M110 0V600M220 0V600M330 0V600M440 0V600M550 0V600M660 0V600M770 0V600M880 0V600M990 0V600M1100 0V600"/></g><text x="70" y="108" fill="#d4af37" font-family="Inter,Segoe UI,sans-serif" font-size="18" font-weight="700" letter-spacing="5">CYBER-PHYSICAL / PHOTONIC SECURITY RESEARCH</text><text x="70" y="188" fill="#f7f8f9" font-family="Inter,Segoe UI,sans-serif" font-size="58" font-weight="900">CYBERPHOTONICS</text><text x="72" y="238" fill="#f1d56f" font-family="Inter,Segoe UI,sans-serif" font-size="28" font-weight="800" letter-spacing="9">SPR</text><text x="72" y="282" fill="#9e9aa7" font-family="Inter,Segoe UI,sans-serif" font-size="20">Secure Sensing · Resilient Systems · Photonic Signal Intelligence</text>
<g transform="translate(860 305)" filter="url(#glow)"><path d="M-175 0C-95-105-28-105 42 0S160 106 210 0" fill="none" stroke="url(#beam)" stroke-width="8"/><path d="M-175 55C-95-50-28-50 42 55S160 160 210 55" fill="none" stroke="url(#beam)" stroke-opacity=".35" stroke-width="4"/><circle cx="20" cy="22" r="86" fill="#0b0810" fill-opacity=".88" stroke="#d4af37" stroke-width="4"/><path d="M20-42L78-18v48c0 47-28 78-58 92-30-14-58-45-58-92v-48z" fill="none" stroke="#f0d161" stroke-width="5"/><circle cx="20" cy="21" r="13" fill="#6cecff"/></g><g font-family="ui-monospace,SFMono-Regular,Consolas,monospace" font-size="15"><text x="70" y="452" fill="#a4a0aa">RESEARCH SIGNAL</text><text x="70" y="490" fill="#d4af37">SPR</text><text x="126" y="490" fill="#c9d1d9">SECURE PHOTONIC RESILIENCE</text><text x="70" y="524" fill="#d4af37">CPS</text><text x="126" y="524" fill="#c9d1d9">CYBER-PHYSICAL ASSURANCE</text></g><rect x="1.5" y="1.5" width="1197" height="597" rx="27" fill="none" stroke="#d4af37" stroke-opacity=".28" stroke-width="3"/></svg>